<svg viewBox="0 0 83 116"><path d="M73.96 70.964l-13.5 12.87c.464-1.51.705-3.086.705-4.686v-.894l10.373-9.9 2.422-.317v2.927zm0 6.764l-5.488 5.226c-.53-.164-1.095-.256-1.683-.256-3.013 0-5.463 2.338-5.463 5.212 0 .557.095 1.093.265 1.597l-18.445 17.566c-.31.03-.622.048-.917.048-1.214 0-2.38-.243-3.44-.683l13.007-12.39c1.753-.917 3.347-2.098 4.705-3.515.987-1.03 1.826-2.16 2.512-3.36L73.96 72.93v4.796zm0 6.765l-1.957 1.865c-.37-1.133-1.138-2.1-2.144-2.755l4.1-3.906v4.796zm0 6.764l-14.353 13.668-5.863.77 13.223-12.58c2.863-.09 5.17-2.288 5.273-5.018l1.72-1.636v4.797zm0 6.764l-6.135 5.828-5.864.77 12-11.393v4.796zm0 5.024l-3.78.495 3.78-3.555v3.06zM63.654 87.91c0-1.652 1.404-2.992 3.135-2.992 1.73 0 3.134 1.34 3.134 2.992 0 1.653-1.404 2.992-3.135 2.992-1.732 0-3.136-1.34-3.136-2.992zm-18.128 18.862l16.742-15.94c.685.962 1.7 1.696 2.887 2.052l-13.765 13.12-5.864.768zm-10.608-3.47l7.147-6.82 3.2-.4c1.024-.127 2.027-.338 3.003-.62L37.47 105.757c-1.017-.637-1.89-1.473-2.552-2.454zm-1.377-4.46v-1.294l.292-.037v.057l.068-.064 5.79-.724-5.485 5.234c-.426-.973-.664-2.043-.664-3.172zM9.698 91.657V56.65l31.953-4c.422-.05.782-.077 1.195-.077.227 0 .452.023.675.038.305.022.607.117.903.117h.154c1.87.335 3.542 1.2 4.812 2.428.06.06.12.118.18.18.073.073.145.148.214.224l.007.007c.09.1.18.2.264.305l.005.006c.227.28.435.572.624.877.027.043.055.084.08.128l.06.107c.054.093.107.186.156.28.015.03.03.06.043.09.053.102.104.207.15.313.013.025.024.052.035.078.05.11.095.223.14.336.008.024.016.048.025.07.043.118.084.235.122.353l.01.03-.024.002c.042.13.09.264.09.397v.404c.29.272.163.548.188.83.02.223.102.45.102.678v18.296c0 .217-.01.433-.028.647l-.003.034c-.02.216-.048.43-.085.643-.585 3.382-3.373 6.12-7.12 6.794-.174.03-.35.06-.527.082l-7.65.957-1.023.128-1.884.236-3.208.403-20.635 2.584zm-.29-78.885l30.478-4c.402-.052.7-.078 1.094-.078 4.703 0 8.554 3.648 8.554 8.28v18.295c0 4.136-3.064 7.638-7.358 8.2l-32.77 4.308V12.772zm50.6 37.668l-3.016-1.934 16.68-15.884v4.796L60.006 50.44zm4.24 2.72l-3.016-1.935 12.44-11.84v4.797l-9.423 8.977zm4.9 15.507l-7.982 7.617v-4.8l2.152-2.054 5.83-.763zm-.66-12.79l-3.017-1.934 8.2-7.793v4.796l-5.184 4.93zm5.344 3.206v.17l-.1.014-.216-.143.317-.04zm-1.094-.48l-3.028-1.94 3.96-3.75v4.8l-.932.89zM54.264 46.365c1.362-1.49 2.407-3.184 3.125-4.998l16.28-15.51v4.796L55.767 47.72l-1.473-.944-.426.057c.13-.153.25-.31.394-.468zm4.284-11.096v-1.873l8.86-8.454 5.86-.734-15.052 14.363c.218-1.08.332-2.187.332-3.304zm0-8.638l.7-.667 5.784-.725-6.484 6.188v-4.796zm14.007-11.207l-14.007 1.75v-.202c0-9.308-7.86-16.927-17.604-16.927L41.01 0c-.805 0-1.62.1-2.42.204L8.11 4.226.393 5.27v48.67L0 53.99l.392.21v47.493l10.395-1.302 13.74-1.716v.168c0 9.31 7.982 16.882 17.726 16.882.804 0 1.646-.053 2.447-.158l30.517-4 7.757-1.02V14.123l-10.42 1.302z" fill="#4A4A4A" fill-rule="evenodd"/></svg>
